<?xml version="1.0" encoding="UTF-8"?>
<svg id="Capa_1" xmlns="http://www.w3.org/2000/svg" version="1.1" xmlns:xlink="http://www.w3.org/1999/xlink" viewBox="0 0 1000 1000">
  <!-- Generator: Adobe Illustrator 29.0.0, SVG Export Plug-In . SVG Version: 2.1.0 Build 186)  -->
  <defs>
    <style>
      .st0 {
        fill: url(#Degradado_sin_nombre_151);
      }

      .st1 {
        fill: url(#Degradado_sin_nombre_242);
      }

      .st2 {
        fill: url(#Degradado_sin_nombre_24);
      }

      .st3 {
        fill: url(#Degradado_sin_nombre_19);
      }

      .st4 {
        fill: url(#Degradado_sin_nombre_243);
      }

      .st5 {
        fill: url(#Degradado_sin_nombre_26);
      }

      .st6 {
        fill: #383838;
      }

      .st7 {
        fill: url(#Degradado_sin_nombre_154);
      }

      .st8 {
        fill: url(#Degradado_sin_nombre_241);
      }

      .st9 {
        fill: url(#Degradado_sin_nombre_152);
      }

      .st10 {
        fill: url(#Degradado_sin_nombre_153);
      }

      .st11 {
        fill: url(#Degradado_sin_nombre_191);
      }

      .st12 {
        fill: url(#Degradado_sin_nombre_15);
      }
    </style>
    <linearGradient id="Degradado_sin_nombre_15" data-name="Degradado sin nombre 15" x1="500.83" y1="564.61" x2="500.83" y2="411.91" gradientUnits="userSpaceOnUse">
      <stop offset="0" stop-color="#075018"/>
      <stop offset="1" stop-color="#2ba538"/>
    </linearGradient>
    <linearGradient id="Degradado_sin_nombre_151" data-name="Degradado sin nombre 15" x1="595.21" y1="596.81" x2="595.21" y2="412.56" xlink:href="#Degradado_sin_nombre_15"/>
    <linearGradient id="Degradado_sin_nombre_19" data-name="Degradado sin nombre 19" x1="396.71" y1="634.93" x2="396.71" y2="556.14" gradientUnits="userSpaceOnUse">
      <stop offset="0" stop-color="#054314"/>
      <stop offset="1" stop-color="#127324"/>
    </linearGradient>
    <linearGradient id="Degradado_sin_nombre_191" data-name="Degradado sin nombre 19" x1="675.27" x2="675.27" xlink:href="#Degradado_sin_nombre_19"/>
    <linearGradient id="Degradado_sin_nombre_26" data-name="Degradado sin nombre 26" x1="322.67" y1="587.08" x2="440.42" y2="482.69" gradientUnits="userSpaceOnUse">
      <stop offset="0" stop-color="#5fa801"/>
      <stop offset="1" stop-color="#a9e706"/>
    </linearGradient>
    <linearGradient id="Degradado_sin_nombre_152" data-name="Degradado sin nombre 15" x1="226.08" y1="481.8" x2="471.23" y2="481.8" xlink:href="#Degradado_sin_nombre_15"/>
    <linearGradient id="Degradado_sin_nombre_153" data-name="Degradado sin nombre 15" x1="223.39" y1="492.9" x2="318.04" y2="492.9" xlink:href="#Degradado_sin_nombre_15"/>
    <linearGradient id="Degradado_sin_nombre_154" data-name="Degradado sin nombre 15" x1="281.94" y1="420.69" x2="353.66" y2="420.69" xlink:href="#Degradado_sin_nombre_15"/>
    <linearGradient id="Degradado_sin_nombre_24" data-name="Degradado sin nombre 24" x1="507.62" y1="490.25" x2="507.62" y2="157.62" gradientUnits="userSpaceOnUse">
      <stop offset="0" stop-color="#007b42"/>
      <stop offset="1" stop-color="#8fd129"/>
    </linearGradient>
    <linearGradient id="Degradado_sin_nombre_241" data-name="Degradado sin nombre 24" x1="517.93" y1="347.75" x2="517.93" y2="217.85" xlink:href="#Degradado_sin_nombre_24"/>
    <linearGradient id="Degradado_sin_nombre_242" data-name="Degradado sin nombre 24" x1="625.91" y1="214.25" x2="625.91" y2="148.41" xlink:href="#Degradado_sin_nombre_24"/>
    <linearGradient id="Degradado_sin_nombre_243" data-name="Degradado sin nombre 24" x1="611.23" y1="216.96" x2="611.23" y2="168.2" xlink:href="#Degradado_sin_nombre_24"/>
  </defs>
  <polygon class="st12" points="602.63 385.56 521.73 497.78 399.03 538.27 602.63 538.27 602.63 385.56"/>
  <path class="st0" d="M763.99,570.62h-5.08v-72.99c0-2.68-.68-5.32-1.98-7.66l-36.4-65.44c-4.1-7.38-11.91-11.98-20.37-11.98h-75.49c-4.45,0-8.05,3.6-8.05,8.05v131.32h-196.15c4.36,2.37,8.31,5.39,11.73,8.91,4.75,4.4,8.49,9.98,10.93,17.07,2.08,5.49,3.22,11.42,3.22,17.63,0,.35,0,.68-.01,1.03.01.08.01.15.01.24h178.5c-.01-.42-.01-.84-.01-1.27,0-27.86,22.59-50.45,50.43-50.45s50.45,22.58,50.45,50.45c0,.43,0,.85-.01,1.27h38.82c3.02,0,5.44-2.44,5.44-5.44v-14.75c0-3.31-2.67-5.99-5.97-5.99ZM730.64,493.06h-72.22c-3.78,0-6.84-3.06-6.84-6.83v-49.93c0-3.77,3.06-6.83,6.84-6.83h42.45c2.41,0,4.65,1.27,5.88,3.34l29.7,50.06c2.67,4.49-.59,10.19-5.81,10.19Z"/>
  <path class="st3" d="M396.71,556.14c-21.76,0-39.39,17.64-39.39,39.4s17.63,39.39,39.39,39.39,39.39-17.63,39.39-39.39-17.63-39.4-39.39-39.4ZM396.71,610.84c-8.46,0-15.31-6.85-15.31-15.3s6.85-15.31,15.31-15.31,15.31,6.85,15.31,15.31-6.85,15.3-15.31,15.3Z"/>
  <path class="st11" d="M675.28,556.14c-21.76,0-39.4,17.64-39.4,39.4s17.64,39.39,39.4,39.39,39.39-17.63,39.39-39.39-17.64-39.4-39.39-39.4ZM675.28,610.84c-8.46,0-15.31-6.85-15.31-15.3s6.85-15.31,15.31-15.31,15.3,6.85,15.3,15.31-6.85,15.3-15.3,15.3Z"/>
  <polygon class="st5" points="208.76 624.62 311.7 608.52 355.12 512.41 491.52 468.85 505.96 488.03 371.95 533.63 329.99 626.21 208.76 624.62"/>
  <polygon class="st9" points="226.08 574.13 245.96 594.86 303.4 594.86 346.09 503.14 471.23 461.92 407.57 379.95 388.29 381.17 391.22 368.73 371.95 368.73 322.92 496.07 226.08 574.13"/>
  <polygon class="st10" points="273.4 424.59 318.04 472.89 311.45 491.19 223.39 561.2 223.39 480.46 273.4 424.59"/>
  <polygon class="st7" points="281.94 415.33 322.19 459.72 353.66 381.66 296.09 399.71 281.94 415.33"/>
  <path class="st2" d="M611.3,212.76l-9.58,14.34c-.71,1.06-1.42,2.21-2.21,3.49-1.3,2.14-2.53,4.34-3.67,6.59,7.04,13.62,11.01,29.08,11.01,45.46,0,54.8-44.43,99.23-99.23,99.23-18.55,0-35.92-5.09-50.77-13.96-3.89,14.75-6.09,30.19-6.41,46.38l57.17,75.96,95.99-127.55c18.1-21.69,29.02-49.61,29.02-80.07,0-25.88-7.87-49.93-21.34-69.88ZM443.46,358.33c-21.45-18.19-35.08-45.37-35.08-75.7,0-54.82,44.43-99.25,99.25-99.25,22.31,0,42.89,7.36,59.48,19.81,5.65,0,11.4.2,17.24.61,2.23.17,4.42.33,6.64.56l15.34,1.54c-22.88-29.38-58.58-48.28-98.7-48.28-69.05,0-125.03,55.97-125.03,125.01,0,30.46,10.92,58.37,29.02,80.07l23.38,31.06c2.5-12.63,5.61-24.18,9.23-34.77-.18-.15-.36-.31-.54-.46-.08-.06-.15-.13-.22-.2Z"/>
  <path class="st8" d="M589.54,218.95c-.89,1.34-1.74,2.69-2.57,4.06-33.18,54.79-20.31,136.46-123.03,123.32,14.14-35.82,38.83-67.36,71.69-95.59-33.01,19.37-63.15,44.09-83.17,87.58h-.01c-27.19-76.88,39.61-126.41,130.85-119.9,2.07.15,4.15.32,6.24.53Z"/>
  <g>
    <path class="st6" d="M217.67,722.72h69.03v18.85h-47.84v18.46h43.16v18h-43.16v19.43h48.42v18.85h-69.61v-93.59Z"/>
    <path class="st6" d="M295.79,782.06c0-21.9,13.97-36.33,35.1-36.33,10.33,0,23.01,3.51,30.61,18.13l-16.77,8.12c-3.51-6.56-7.73-8.97-13.39-8.97-9.68,0-15.01,7.74-15.01,18.91,0,11.83,5.91,18.98,15.01,18.98,5.85,0,9.88-2.6,13.39-9.69l16.9,7.67c-8.06,15.86-19.04,19.24-30.68,19.24-20.93,0-35.16-14.36-35.16-36.07Z"/>
    <path class="st6" d="M367.92,781.87c0-22.49,15.47-36.27,35.49-36.27s35.49,13.78,35.49,36.27-15.47,36.27-35.49,36.27-35.49-13.78-35.49-36.27ZM418.36,781.87c0-11.76-5.78-18.98-14.95-18.98s-14.95,7.21-14.95,18.98,5.78,18.98,14.95,18.98,14.95-7.15,14.95-18.98Z"/>
    <path class="st6" d="M513.51,741.64h-28.6v74.68h-21.25v-74.68h-28.66v-18.91h78.51v18.91Z"/>
    <path class="st6" d="M565.37,746.97l-3.25,17.68c-1.75-.45-4.81-.71-7.28-.71-9.75,0-16.31,7.73-16.31,19.69v32.69h-20.15v-68.9h19.76v9.75c2.6-5.92,9.17-11.31,18.85-11.31,2.01,0,4.74.19,8.38,1.1Z"/>
    <path class="st6" d="M636.67,747.42v68.9h-19.69v-8.06c-2.47,4.61-8.97,9.88-20.41,9.88-12.09,0-22.88-7.67-22.88-24.24v-46.47h20.15v41.79c0,8.32,4.09,11.83,10.14,11.83,7.99,0,12.54-6.89,12.54-14.3v-39.32h20.15Z"/>
    <path class="st6" d="M648.17,782.06c0-21.9,13.98-36.33,35.1-36.33,10.33,0,23.01,3.51,30.61,18.13l-16.77,8.12c-3.51-6.56-7.73-8.97-13.39-8.97-9.68,0-15.01,7.74-15.01,18.91,0,11.83,5.92,18.98,15.01,18.98,5.85,0,9.88-2.6,13.39-9.69l16.9,7.67c-8.06,15.86-19.04,19.24-30.68,19.24-20.93,0-35.16-14.36-35.16-36.07Z"/>
    <path class="st6" d="M752.22,789.73l-7.73,8.64v17.94h-20.15v-93.59h20.15v50.05l21.84-25.35h23.59l-24.83,27.82,25.93,41.08h-22.75l-16.05-26.58Z"/>
  </g>
  <path class="st1" d="M642.58,212.82c-2-25.15-18.32-46.51-42.07-55.08-.79-.28-1.21-1.13-.95-1.93l2.13-6.35c.27-.81,1.17-1.26,1.98-.97,27.52,9.85,46.42,34.6,48.67,63.72.07.86-.6,1.6-1.46,1.65l-6.69.38c-.84.05-1.54-.59-1.61-1.42Z"/>
  <path class="st4" d="M621.3,215.5c-1.01-17.36-12.38-32.3-28.85-37.88-.79-.27-1.24-1.1-1-1.9l1.93-6.42c.25-.82,1.13-1.3,1.95-1.03,20.47,6.82,34.6,25.37,35.74,46.93.05.86-.65,1.59-1.51,1.61l-6.7.16c-.84.02-1.52-.63-1.56-1.47Z"/>
</svg>